<?xml version="1.0" standalone="no"?>
<!DOCTYPE svg PUBLIC "-//W3C//DTD SVG 20010904//EN"
 "http://www.w3.org/TR/2001/REC-SVG-20010904/DTD/svg10.dtd">
<svg version="1.0" xmlns="http://www.w3.org/2000/svg"
 width="1024.000000pt" height="1024.000000pt" viewBox="0 0 1024.000000 1024.000000"
 preserveAspectRatio="xMidYMid meet">
<metadata>
Created by potrace 1.14, written by Peter Selinger 2001-2017
</metadata>
<g transform="translate(0.000000,1024.000000) scale(0.100000,-0.100000)"
fill="#000000" stroke="none">
<path d="M4435 8611 c-74 -31 -84 -143 -16 -187 24 -16 77 -18 691 -19 611 -1
668 1 701 17 65 31 77 118 23 169 l-26 24 -676 2 c-372 1 -686 -2 -697 -6z"/>
<path d="M4909 8316 c-2 -2 -38 -6 -79 -10 -41 -3 -91 -8 -110 -10 -169 -23
-166 -23 -310 -56 -549 -126 -1052 -389 -1449 -755 -118 -109 -162 -155 -295
-306 -133 -150 -312 -421 -419 -634 -74 -148 -178 -411 -207 -525 -5 -19 -16
-62 -25 -95 -10 -33 -18 -67 -20 -75 -25 -116 -36 -172 -40 -205 -3 -22 -10
-65 -15 -95 -18 -107 -25 -228 -25 -445 1 -253 11 -388 45 -560 5 -27 12 -62
15 -77 12 -65 16 -84 21 -100 3 -9 7 -27 9 -40 25 -129 132 -421 227 -616 197
-409 447 -731 818 -1056 19 -17 75 -60 125 -98 49 -37 95 -71 100 -76 20 -14
151 -100 215 -139 212 -131 637 -304 859 -349 14 -3 27 -7 31 -9 6 -4 269 -51
330 -60 197 -26 662 -27 808 -1 9 2 44 7 77 12 33 4 62 8 65 9 3 1 25 5 50 9
25 5 53 10 63 12 132 24 387 102 547 166 439 177 864 473 1170 814 94 104 111
125 188 226 317 417 531 918 612 1428 6 41 13 85 15 97 20 129 28 551 12 707
-8 81 -24 205 -32 248 -45 231 -88 394 -151 566 -41 111 -40 109 -129 297
-245 510 -650 972 -1126 1282 -122 79 -289 171 -420 232 -159 73 -455 176
-594 206 -89 19 -292 54 -345 60 -36 4 -74 9 -85 12 -24 6 -521 14 -526 9z
m471 -650 c14 -2 50 -7 81 -11 31 -3 67 -8 80 -11 13 -2 49 -9 79 -15 207 -39
441 -119 642 -220 97 -49 297 -165 308 -178 3 -4 34 -27 70 -53 36 -25 75 -54
87 -64 11 -11 41 -35 64 -54 143 -117 354 -356 473 -538 198 -302 349 -689
392 -1002 2 -19 6 -48 9 -65 20 -138 26 -421 11 -590 -8 -99 -47 -319 -71
-405 -9 -30 -22 -78 -30 -107 -27 -96 -106 -287 -174 -419 -58 -112 -174 -300
-217 -353 -7 -9 -42 -52 -78 -97 -151 -189 -369 -385 -591 -529 -205 -134
-542 -284 -740 -330 -63 -14 -266 -54 -300 -59 -190 -26 -549 -27 -695 -2 -14
2 -59 10 -100 16 -301 47 -669 190 -950 370 -291 187 -559 453 -752 747 -69
105 -110 172 -113 183 0 3 -7 16 -15 30 -87 154 -208 483 -235 639 -3 19 -8
37 -10 41 -6 10 -32 184 -42 280 -9 93 -10 370 -1 470 39 419 180 826 408
1173 80 121 69 107 181 242 340 412 815 712 1337 845 97 24 167 38 237 46 28
4 52 8 55 9 3 2 44 7 90 10 47 4 86 9 88 10 5 5 395 -3 422 -9z"/>
<path d="M5271 6353 c-104 -386 -254 -944 -272 -1008 -11 -38 -22 -79 -24 -90
-3 -11 -25 -94 -50 -185 -24 -91 -54 -199 -65 -240 -11 -41 -31 -115 -44 -165
-86 -317 -286 -1065 -286 -1069 0 -1 94 -1 210 -1 l209 0 9 40 c5 22 35 135
66 250 32 116 85 311 118 435 33 124 74 275 90 335 48 178 82 306 147 550 34
127 75 277 91 335 16 58 41 150 55 205 35 128 70 260 96 355 27 98 25 91 53
198 l24 92 -209 0 -208 0 -10 -37z"/>
</g>
</svg>
